<?xml version="1.0" encoding="UTF-8" standalone="no"?>
<svg
   viewBox="0 0 19136.787 9279.0892"
   version="1.1"
   id="svg8"
   xml:space="preserve"
   width="19136.787"
   height="9279.0889"
   xmlns="http://www.w3.org/2000/svg"
   xmlns:svg="http://www.w3.org/2000/svg"><defs
     id="defs8" /><path
     style="display:inline;fill:#000000;fill-opacity:1;stroke:none"
     d="M 49.431263,100.86998 C 10.593647,98.639863 -8.9678719,51.9617 16.782715,22.963232 l 0.366906,-0.413184 v 2.323356 2.323355 l -0.441973,0.602468 C 6.3867616,41.86797 5.2837252,60.593228 13.892967,75.58155 c 0.952942,1.659032 3.934448,6.016766 4.695788,6.863309 1.812171,2.014975 2.582022,2.80502 3.395399,3.484464 0.261151,0.21815 0.748841,0.652357 1.083755,0.964905 0.334915,0.312547 0.956497,0.811693 1.381295,1.109211 0.424798,0.297518 1.342746,0.9556 2.039885,1.462404 1.574034,1.144288 3.690985,2.47355 3.783731,2.375857 0.03817,-0.04021 0.270715,-0.451877 0.516767,-0.914827 0.246051,-0.462949 0.461115,-0.841726 0.477919,-0.841726 0.0168,0 0.819456,0.385493 1.783672,0.85665 16.95068,8.28284 35.706111,5.50671 49.954939,-7.394199 l 0.593714,-0.537549 0.449837,1.501576 0.449838,1.501577 -0.372784,0.340838 c -4.708129,4.304667 -11.238036,7.995406 -17.592131,9.943167 -0.638987,0.195873 -1.170101,0.364439 -1.180254,0.374592 -0.01015,0.01015 0.114101,0.502302 0.27612,1.093664 0.162018,0.591363 0.265794,1.099493 0.230613,1.129179 -0.03518,0.02969 -0.588426,0.194565 -1.229434,0.366398 -5.090521,1.36461 -10.142602,1.89936 -15.200373,1.60894 z M 51.308337,89.912485 C 51.274848,88.939104 51.151912,85.520399 51.035145,82.315363 50.59238,70.162295 50.334337,61.945192 50.245548,57.171479 l -0.05901,-3.172662 -0.568818,-0.0011 C 48.871203,53.996364 40.311326,53.766654 36.789909,53.653514 29.438498,53.417318 15.414981,52.916148 13.35106,52.81586 l -1.338129,-0.06502 1.467625,-0.06251 c 1.69967,-0.07239 11.915742,-0.443089 17.395684,-0.63122 5.270732,-0.180949 11.718751,-0.373351 14.417267,-0.430195 1.258273,-0.02651 2.874024,-0.07078 3.590557,-0.09839 l 1.302788,-0.0502 0.05885,-3.164218 c 0.09238,-4.966662 0.349782,-13.089198 0.83419,-26.323269 0.141228,-3.858343 0.260743,-7.277048 0.26559,-7.597123 0.05506,-3.635375 1.02644,22.823371 1.254833,34.179376 l 0.05843,2.905215 1.302991,0.04948 c 0.716645,0.02721 3.051192,0.09076 5.187883,0.141224 5.562723,0.131369 20.564975,0.63139 28.446043,0.9481 1.16331,0.04675 2.364389,0.08539 2.669065,0.08587 0.304676,4.78e-4 0.536877,0.01795 0.516002,0.03883 -0.0342,0.0342 -5.706004,0.255549 -15.616721,0.609459 -6.216491,0.22199 -13.962302,0.456647 -20.209518,0.612242 l -2.295847,0.05718 -0.05802,2.902732 c -0.06915,3.459683 -0.255429,9.782607 -0.487377,16.54302 -0.666335,19.421118 -0.687607,19.855753 -0.804915,16.446043 z m 12.38572,-3.733203 c -0.18853,-0.58199 -2.466717,-7.697254 -5.062636,-15.811697 -2.595919,-8.114443 -4.740052,-14.80617 -4.764739,-14.870503 -0.03747,-0.09766 0.868171,-0.11697 5.484733,-0.11697 h 5.529619 l 0.301687,0.971223 c 0.165928,0.534172 1.395659,4.545323 2.732734,8.913669 1.337076,4.368345 2.456353,7.987955 2.487283,8.043578 0.03093,0.05562 1.373961,-3.955527 2.984514,-8.913668 l 2.928277,-9.014802 h 4.935516 4.935515 l 2.754912,9.107209 c 1.515202,5.008965 2.776086,9.107526 2.801963,9.107914 0.02588,3.87e-4 1.123884,-3.36944 2.440013,-7.488505 1.31613,-4.119065 2.626903,-8.217626 2.912829,-9.107913 l 0.519866,-1.618705 h 5.099717 c 4.67534,0 5.09523,0.01169 5.0458,0.140514 -0.0297,0.07728 -2.17368,6.76901 -4.76449,14.870503 -2.59082,8.101494 -4.864939,15.206163 -5.053606,15.788153 l -0.34303,1.058165 -5.755951,-0.02219 -5.755951,-0.02219 -2.545139,-8.438849 c -1.399827,-4.641367 -2.56614,-8.438153 -2.591808,-8.437302 -0.02567,8.5e-4 -1.252307,3.798332 -2.725866,8.438848 l -2.679199,8.437303 -5.75489,0.02219 -5.754891,0.02219 z M 95.387032,54.194833 c -0.08144,-0.02848 -0.107913,-0.458271 -0.107913,-1.751963 0,-4.255797 -0.697031,-8.796749 -1.953332,-12.725381 -0.168155,-0.525845 -0.337321,-1.03378 -0.375924,-1.128744 -0.0386,-0.09496 -0.177587,-0.483453 -0.308854,-0.863309 -0.131266,-0.379856 -0.329521,-0.892115 -0.440566,-1.138353 -0.111045,-0.246238 -0.2019,-0.470043 -0.2019,-0.497344 0,-0.04844 -0.101,-0.281122 -0.620307,-1.429051 -0.48378,-1.069395 -1.2453,-2.537467 -1.724094,-3.323741 -0.08674,-0.142446 -0.184821,-0.317266 -0.217956,-0.38849 -0.115278,-0.247792 -0.960337,-1.618072 -1.283302,-2.080902 -0.913156,-1.308606 -1.152169,-1.643225 -1.627716,-2.27881 -0.284209,-0.379856 -0.539396,-0.710072 -0.567081,-0.733813 -0.02768,-0.02374 -0.184695,-0.217985 -0.348911,-0.431654 -0.493527,-0.64215 -0.912356,-1.090622 -2.58658,-2.769649 C 68.984815,8.5755815 46.685278,5.8527428 29.584331,16.12866 l -1.248744,0.750368 -2.532507,-0.02284 -2.532507,-0.02284 0.889164,-0.661224 C 30.428835,11.510134 37.782771,8.4962984 45.595665,7.3871201 47.9673,7.0504245 48.836845,6.9973381 52.02732,6.9944619 l 3.151079,-0.00284 0.104675,-1.155035 c 0.05757,-0.6352692 0.121338,-1.1716978 0.141704,-1.1920634 0.308354,-0.3083546 8.82233,1.1601645 10.847146,1.8709522 0.118705,0.04167 0.623741,0.1985248 1.122302,0.3485662 0.498561,0.1500414 0.984173,0.3035153 1.079137,0.3410531 0.09496,0.037538 0.464029,0.1728724 0.820144,0.3007435 0.724451,0.2601302 1.999696,0.7622729 2.589928,1.0198142 0.213669,0.093232 0.52446,0.2288531 0.690647,0.3013797 0.531286,0.2318612 3.052136,1.4910056 3.410072,1.7033026 0.189929,0.11265 0.461871,0.266039 0.604317,0.340865 0.142446,0.07483 0.403173,0.22318 0.579393,0.329674 0.176221,0.106494 0.506437,0.305541 0.733813,0.442326 0.227377,0.136785 0.621882,0.389303 0.876677,0.561151 0.254796,0.171848 0.524835,0.3513 0.600088,0.398782 0.07525,0.04748 0.313546,0.211635 0.529541,0.364786 0.215995,0.15315 0.606387,0.42354 0.867538,0.600868 0.261152,0.177327 0.68849,0.490437 0.949641,0.695801 0.261151,0.205364 0.565619,0.44001 0.676596,0.521435 0.110977,0.08143 0.290252,0.235455 0.398389,0.34229 0.108137,0.106834 0.215063,0.194245 0.237614,0.194245 0.04291,0 0.643129,0.50809 0.994359,0.841726 0.112468,0.106835 0.223441,0.194245 0.246606,0.194245 0.02317,0 0.17809,0.135971 0.344278,0.302158 0.166187,0.166187 0.322199,0.302158 0.346695,0.302158 0.05793,0 2.97129,2.924894 2.97129,2.983054 0,0.02436 0.135971,0.180256 0.302158,0.346443 0.166188,0.166187 0.302159,0.314056 0.302159,0.328599 0,0.03111 0.562184,0.685514 0.841726,0.979797 0.106835,0.112468 0.194245,0.227404 0.194245,0.255412 0,0.02801 0.08741,0.1394 0.194245,0.247537 0.106834,0.108137 0.261459,0.287412 0.34361,0.398389 0.142029,0.191864 0.804675,1.060988 1.18448,1.55356 0.09732,0.126215 0.176946,0.267141 0.176946,0.31317 0,0.04603 0.06356,0.136437 0.141238,0.200906 0.121963,0.101221 0.336149,0.4025 0.677142,0.952487 0.04845,0.07815 0.228697,0.350091 0.400545,0.604317 0.171848,0.254226 0.424366,0.648264 0.561151,0.875641 0.136786,0.227376 0.335832,0.557592 0.442326,0.733813 0.106494,0.17622 0.254848,0.436947 0.329674,0.579393 0.07483,0.142446 0.228116,0.414388 0.340643,0.604317 0.189191,0.319324 1.602238,3.147696 1.768359,3.539568 0.04026,0.09496 0.167519,0.386331 0.282806,0.647482 0.115286,0.261151 0.335791,0.805036 0.49001,1.208633 0.321673,0.841828 0.430221,1.111684 0.522035,1.297798 0.0359,0.07278 0.09458,0.265751 0.130402,0.428821 0.03582,0.16307 0.09682,0.356039 0.135576,0.428821 0.03875,0.07278 0.173933,0.48197 0.300403,0.909308 0.12647,0.427338 0.282594,0.932374 0.346941,1.122302 0.626212,1.848333 1.422212,6.151757 1.692661,9.151079 0.104,1.153283 0.16154,6.373073 0.0712,6.457128 -0.0566,0.05264 -4.586155,0.133339 -4.726615,0.08421 z m -77.007425,-20.246376 0.02181,-15.906474 8.28777,6.14e-4 c 13.475631,9.98e-4 16.561353,0.839323 19.627104,5.332267 3.716121,5.446081 1.738267,14.048876 -3.80696,16.558606 -0.32867,0.148754 -0.570067,-0.251339 3.043165,5.043764 1.804317,2.644181 3.280576,4.823374 3.280576,4.84265 0,0.01928 -2.573741,0.03323 -5.719425,0.031 l -5.719424,-0.004 -2.664269,-3.967174 -2.664268,-3.967173 h -1.458031 -1.458034 v 3.971223 3.971223 h -5.395913 -5.395913 z m 15.714399,-0.239043 c 2.326447,-0.336407 3.533005,-1.920898 3.246921,-4.263961 -0.289499,-2.371029 -1.551972,-3.069929 -5.666126,-3.136743 l -2.52518,-0.04101 v 3.764839 3.764838 l 2.179857,-0.0017 c 1.19892,-9.4e-4 2.442958,-0.03975 2.764528,-0.08625 z"
     id="path9" /><path
     style="display:inline;fill:#000000"
     d="M 30.581807,89.651086 C 26.200405,89.149324 21.890918,86.772924 19.314068,83.437665 19.075615,83.129032 18.798048,82.768648 18.697252,82.636811 11.548809,73.28699 19.149655,58.201895 31.243147,57.737476 l 1.359712,-0.05222 v -0.282204 c 0,-0.454707 0.0673,-0.546289 0.373641,-0.508478 0.150612,0.01859 0.66233,0.07602 1.13715,0.127622 16.511142,1.794403 19.309463,24.935014 3.727443,30.823955 l -0.761766,0.287896 0.05713,0.306483 c 0.03142,0.168566 0.06342,0.34125 0.07112,0.383742 0.01824,0.1007 -1.279362,0.43901 -2.520431,0.657127 -1.138842,0.200151 -3.123131,0.282166 -4.105334,0.169683 z m 4.444968,-3.012878 c 1.422878,-0.303587 3.903744,-1.228647 3.732632,-1.391815 -0.41431,-0.395073 -4.009159,-1.08037 -6.156548,-1.17364 -2.132928,-0.09264 -6.136144,0.474338 -7.066784,1.000875 -0.47152,0.266777 3.076182,1.449691 5.297,1.766184 0.69348,0.09883 3.394086,-0.031 4.1937,-0.201604 z M 25.21607,84.490721 c 3.963431,-2.673804 9.441241,-2.63837 13.507054,0.08737 l 0.638251,0.427886 0.703238,-0.47769 c 4.702054,-3.193979 7.02501,-8.870091 5.887322,-14.385588 -0.322857,-1.565204 -0.5734,-2.207023 -0.850155,-2.177855 -0.199569,0.02103 -0.267485,-0.05662 -0.628102,-0.718183 C 40.738248,60.393923 32.569152,57.75708 25.782434,61.21345 16.624556,65.877415 15.384555,78.331139 23.446606,84.672911 l 0.728639,0.573163 0.301838,-0.230223 c 0.166011,-0.126623 0.498555,-0.362932 0.738987,-0.525132 z m 5.458134,-3.554869 c -6.635299,-1.207305 -8.826574,-9.576296 -3.596525,-13.735969 4.832577,-3.843547 12.011369,-0.75548 12.569807,5.407095 l 0.05833,0.643637 H 38.91693 38.128044 l -0.0015,-0.366907 c -0.01492,-3.65202 -3.947794,-6.56702 -7.659538,-5.677159 -6.06495,1.454024 -6.419266,9.989379 -0.497237,11.978278 3.491561,1.172632 7.800894,-1.328866 8.753883,-5.081486 0.221714,-0.873052 0.296735,-0.82977 0.242808,0.14008 -0.228565,4.110627 -4.322514,7.414732 -8.292252,6.692431 z"
     id="path10" /></svg>
